<?xml version="1.0" encoding="UTF-8"?>
<svg version="1.1" xmlns="http://www.w3.org/2000/svg" width="193" height="321">
<path d="M0 0 C1.13072182 0.00539291 1.13072182 0.00539291 2.2842865 0.01089478 C3.46956436 0.01067574 3.46956436 0.01067574 4.67878723 0.01045227 C7.30309245 0.0111516 9.92732759 0.01894489 12.55162048 0.02676392 C14.36623089 0.02862803 16.18084179 0.03005196 17.99545288 0.03105164 C22.78111653 0.03487737 27.56675003 0.04470813 32.35240173 0.05575562 C37.23195488 0.06596854 42.11151287 0.070549 46.99107361 0.07559204 C56.57246922 0.08633035 66.15383451 0.1039276 75.73521423 0.12442017 C75.73521423 5.40442017 75.73521423 10.68442017 75.73521423 16.12442017 C80.62674894 16.08485227 80.62674894 16.08485227 85.51817322 16.03433228 C87.2574314 16.02717103 88.99666727 16.07417314 90.73521423 16.12442017 C91.73521423 17.12442017 91.73521423 17.12442017 91.85546875 19.02897644 C91.85324814 19.86170578 91.85102753 20.69443512 91.84873962 21.55239868 C91.84866409 22.49329849 91.84858856 23.4341983 91.84851074 24.40361023 C91.84334946 25.42651657 91.83818817 26.44942291 91.83287048 27.50332642 C91.83074806 29.06602516 91.83074806 29.06602516 91.82858276 30.66029358 C91.82296503 34.00253111 91.81040953 37.34470273 91.79771423 40.68692017 C91.79270152 42.94668483 91.78813822 45.20645053 91.78404236 47.46621704 C91.77298984 53.01897407 91.75623447 58.57169241 91.73521423 64.12442017 C93.34203064 64.10701782 93.34203064 64.10701782 94.98130798 64.08926392 C96.37844167 64.07988718 97.77557722 64.07078686 99.17271423 64.06192017 C99.87976501 64.05354126 100.5868158 64.04516235 101.31529236 64.03652954 C103.12214983 64.02788429 104.92909026 64.07222005 106.73521423 64.12442017 C107.73521423 65.12442017 107.73521423 65.12442017 107.85546875 67.10490417 C107.85324814 67.9731633 107.85102753 68.84142242 107.84873962 69.73599243 C107.84866409 70.71693375 107.84858856 71.69787506 107.84851074 72.70854187 C107.84334946 73.77519577 107.83818817 74.84184967 107.83287048 75.94082642 C107.83074806 77.5701133 107.83074806 77.5701133 107.82858276 79.23231506 C107.82296472 82.71721092 107.81040916 86.20204358 107.79771423 89.68692017 C107.79270156 92.04303903 107.78813825 94.3991589 107.78404236 96.75527954 C107.77298942 102.5450176 107.7557127 108.33470815 107.73521423 114.12442017 C102.45521423 114.12442017 97.17521423 114.12442017 91.73521423 114.12442017 C91.77478213 119.01595487 91.77478213 119.01595487 91.82530212 123.90737915 C91.83246337 125.64663733 91.78546126 127.3858732 91.73521423 129.12442017 C91.40521423 129.45442017 91.07521423 129.78442017 90.73521423 130.12442017 C85.78521423 130.12442017 80.83521423 130.12442017 75.73521423 130.12442017 C75.73521423 145.30442017 75.73521423 160.48442017 75.73521423 176.12442017 C85.63521423 176.12442017 95.53521423 176.12442017 105.73521423 176.12442017 C105.73521423 170.84442017 105.73521423 165.56442017 105.73521423 160.12442017 C110.41667134 160.10150928 115.09793525 160.08158284 119.77940369 160.06948853 C121.37316038 160.06444859 122.96691242 160.05761667 124.56065369 160.04898071 C126.84671676 160.03690018 129.1327189 160.03118861 131.41880798 160.02676392 C132.13548141 160.02160263 132.85215485 160.01644135 133.59054565 160.01112366 C135.30585096 160.01092754 137.0210269 160.06250009 138.73521423 160.12442017 C139.73521423 161.12442017 139.73521423 161.12442017 139.83287048 164.50332642 C139.82712847 165.89789508 139.81411651 167.29243614 139.79771423 168.68692017 C139.77708923 171.14129517 139.75646423 173.59567017 139.73521423 176.12442017 C144.68521423 176.12442017 149.63521423 176.12442017 154.73521423 176.12442017 C154.73521423 187.34442017 154.73521423 198.56442017 154.73521423 210.12442017 C149.78521423 210.12442017 144.83521423 210.12442017 139.73521423 210.12442017 C139.7468158 212.3506311 139.75841736 214.57684204 139.77037048 216.87051392 C139.77816146 219.0183803 139.78423798 221.16624514 139.79014587 223.31411743 C139.79518544 224.81086935 139.80201711 226.30761632 139.81065369 227.80435181 C139.82273582 229.95141824 139.82844615 232.09841979 139.83287048 234.24551392 C139.8381073 235.53900757 139.84334412 236.83250122 139.84873962 238.16519165 C139.73521423 241.12442017 139.73521423 241.12442017 138.73521423 242.12442017 C136.20243774 242.1976218 133.70417506 242.21669586 131.17271423 242.18692017 C128.71833923 242.16629517 126.26396423 242.14567017 123.73521423 242.12442017 C123.73521423 247.40442017 123.73521423 252.68442017 123.73521423 258.12442017 C113.17521423 258.12442017 102.61521423 258.12442017 91.73521423 258.12442017 C91.73521423 273.30442017 91.73521423 288.48442017 91.73521423 304.12442017 C96.68521423 304.12442017 101.63521423 304.12442017 106.73521423 304.12442017 C110.74907909 308.13828503 107.73521423 315.44795804 107.73521423 321.12442017 C75.39521423 321.12442017 43.05521423 321.12442017 9.73521423 321.12442017 C9.73521423 305.12442017 9.73521423 305.12442017 10.73521423 304.12442017 C15.68521423 304.12442017 20.63521423 304.12442017 25.73521423 304.12442017 C25.73521423 288.94442017 25.73521423 273.76442017 25.73521423 258.12442017 C22.3540033 258.13602173 18.97279236 258.14762329 15.48912048 258.15957642 C12.22927443 258.16736591 8.9694294 258.17344328 5.70957947 258.17935181 C3.43678832 258.18439342 1.16400044 258.19122654 -1.10877991 258.19985962 C-4.36782128 258.21193277 -7.62681993 258.21765004 -10.88587952 258.22207642 C-11.90878586 258.2272377 -12.9316922 258.23239899 -13.9855957 258.23771667 C-14.92649551 258.23779221 -15.86739532 258.23786774 -16.83680725 258.23794556 C-17.66953659 258.24016617 -18.50226593 258.24238678 -19.36022949 258.24467468 C-21.26478577 258.12442017 -21.26478577 258.12442017 -22.26478577 257.12442017 C-22.33792143 254.59392615 -22.35726104 252.0913718 -22.32728577 249.56192017 C-22.32277405 248.8510022 -22.31826233 248.14008423 -22.31361389 247.40762329 C-22.30179441 245.64652003 -22.2838584 243.88545981 -22.26478577 242.12442017 C-23.87160217 242.14182251 -23.87160217 242.14182251 -25.51087952 242.15957642 C-26.9080132 242.16895315 -28.30514875 242.17805348 -29.70228577 242.18692017 C-30.40933655 242.19529907 -31.11638733 242.20367798 -31.84486389 242.21231079 C-33.65172136 242.22095604 -35.45866179 242.17662028 -37.26478577 242.12442017 C-38.86530241 240.52390353 -38.39210049 238.83595894 -38.3941803 236.62051392 C-38.39733246 235.66282104 -38.40048462 234.70512817 -38.4037323 233.71841431 C-38.40170807 232.67677124 -38.39968384 231.63512817 -38.39759827 230.56192017 C-38.39855499 229.50029663 -38.39951172 228.4386731 -38.40049744 227.34487915 C-38.40117941 225.09528545 -38.39932395 222.8456898 -38.39515686 220.59609985 C-38.38980886 217.13934945 -38.39510131 213.68272899 -38.40150452 210.22598267 C-38.40084374 208.04629488 -38.39956258 205.86660717 -38.39759827 203.68692017 C-38.3996225 202.6452771 -38.40164673 201.60363403 -38.4037323 200.53042603 C-38.40058014 199.57273315 -38.39742798 198.61504028 -38.3941803 197.62832642 C-38.3933847 196.78084839 -38.39258911 195.93337036 -38.39176941 195.06021118 C-38.26478577 193.12442017 -38.26478577 193.12442017 -37.26478577 192.12442017 C-34.73429175 192.0512845 -32.2317374 192.0319449 -29.70228577 192.06192017 C-28.9913678 192.06643188 -28.28044983 192.0709436 -27.54798889 192.07559204 C-25.78688563 192.08741153 -24.02582541 192.10534753 -22.26478577 192.12442017 C-22.27638733 191.05320923 -22.28798889 189.98199829 -22.29994202 188.87832642 C-22.30931875 187.48119273 -22.31841908 186.08405718 -22.32728577 184.68692017 C-22.33566467 183.97986938 -22.34404358 183.2728186 -22.35267639 182.54434204 C-22.36132164 180.73748457 -22.31698588 178.93054414 -22.26478577 177.12442017 C-20.26862023 175.12825463 -16.44776613 175.71458589 -13.70228577 175.56192017 C-12.63590881 175.49714478 -12.63590881 175.49714478 -11.54798889 175.43106079 C-9.78716665 175.3247024 -8.02600257 175.22403171 -6.26478577 175.12442017 C-6.27264099 173.34611816 -6.27264099 173.34611816 -6.28065491 171.53189087 C-6.29878457 167.12434649 -6.31024691 162.71680541 -6.31971741 158.30923462 C-6.32473941 156.4033045 -6.33155824 154.49737821 -6.34022522 152.59146118 C-6.35238423 149.84853161 -6.35803548 147.10565307 -6.36244202 144.36270142 C-6.3676033 143.51355667 -6.37276459 142.66441193 -6.37808228 141.78953552 C-6.37846203 137.76498968 -6.27370816 134.05188625 -5.26478577 130.12442017 C-6.4081842 130.13602173 -7.55158264 130.14762329 -8.72962952 130.15957642 C-10.22051331 130.16895304 -11.71139886 130.17805338 -13.20228577 130.18692017 C-13.95703186 130.19529907 -14.71177795 130.20367798 -15.48939514 130.21231079 C-17.4147289 130.22094457 -19.34014158 130.17666349 -21.26478577 130.12442017 C-22.26478577 129.12442017 -22.26478577 129.12442017 -22.36244202 125.74551392 C-22.35576946 124.35094939 -22.34381108 122.95640274 -22.32728577 121.56192017 C-22.32277405 120.8510022 -22.31826233 120.14008423 -22.31361389 119.40762329 C-22.30179441 117.64652003 -22.2838584 115.88545981 -22.26478577 114.12442017 C-23.87160217 114.14182251 -23.87160217 114.14182251 -25.51087952 114.15957642 C-26.9080132 114.16895315 -28.30514875 114.17805348 -29.70228577 114.18692017 C-30.40933655 114.19529907 -31.11638733 114.20367798 -31.84486389 114.21231079 C-33.65172136 114.22095604 -35.45866179 114.17662028 -37.26478577 114.12442017 C-38.86530241 112.52390353 -38.39210049 110.83595894 -38.3941803 108.62051392 C-38.39890854 107.18397461 -38.39890854 107.18397461 -38.4037323 105.71841431 C-38.40170807 104.67677124 -38.39968384 103.63512817 -38.39759827 102.56192017 C-38.39855499 101.50029663 -38.39951172 100.4386731 -38.40049744 99.34487915 C-38.40117941 97.09528545 -38.39932395 94.8456898 -38.39515686 92.59609985 C-38.38980886 89.13934945 -38.39510131 85.68272899 -38.40150452 82.22598267 C-38.40084374 80.04629488 -38.39956258 77.86660717 -38.39759827 75.68692017 C-38.3996225 74.6452771 -38.40164673 73.60363403 -38.4037323 72.53042603 C-38.40058014 71.57273315 -38.39742798 70.61504028 -38.3941803 69.62832642 C-38.3933847 68.78084839 -38.39258911 67.93337036 -38.39176941 67.06021118 C-38.26478577 65.12442017 -38.26478577 65.12442017 -37.26478577 64.12442017 C-35.92211164 64.03810142 -34.57504255 64.01735543 -33.22962952 64.02676392 C-32.4207428 64.02998657 -31.61185608 64.03320923 -30.77845764 64.03652954 C-29.92832092 64.04490845 -29.0781842 64.05328735 -28.20228577 64.06192017 C-27.34828186 64.06643188 -26.49427795 64.0709436 -25.61439514 64.07559204 C-23.49782913 64.08741643 -21.38129892 64.10535248 -19.26478577 64.12442017 C-19.26478577 59.50442017 -19.26478577 54.88442017 -19.26478577 50.12442017 C-20.25478577 50.12442017 -21.24478577 50.12442017 -22.26478577 50.12442017 C-22.26478577 38.90442017 -22.26478577 27.68442017 -22.26478577 16.12442017 C-14.34478577 15.62942017 -14.34478577 15.62942017 -6.26478577 15.12442017 C-6.28541077 12.83504517 -6.30603577 10.54567017 -6.32728577 8.18692017 C-6.34849445 5.83275685 -6.33750318 3.47755571 -6.26478577 1.12442017 C-4.53337083 -0.60699477 -2.30728533 0.00464438 0 0 Z " fill="#AAC1FB" transform="translate(38.26478576660156,-0.124420166015625)"/>
<path d="M0 0 C1.13072182 0.00539291 1.13072182 0.00539291 2.2842865 0.01089478 C3.07447174 0.01074875 3.86465698 0.01060272 4.67878723 0.01045227 C7.30309245 0.0111516 9.92732759 0.01894489 12.55162048 0.02676392 C14.36623089 0.02862803 16.18084179 0.03005196 17.99545288 0.03105164 C22.78111653 0.03487737 27.56675003 0.04470813 32.35240173 0.05575562 C37.23195488 0.06596854 42.11151287 0.070549 46.99107361 0.07559204 C56.57246922 0.08633035 66.15383451 0.1039276 75.73521423 0.12442017 C75.73521423 5.40442017 75.73521423 10.68442017 75.73521423 16.12442017 C80.62674894 16.08485227 80.62674894 16.08485227 85.51817322 16.03433228 C87.2574314 16.02717103 88.99666727 16.07417314 90.73521423 16.12442017 C91.73521423 17.12442017 91.73521423 17.12442017 91.85546875 19.02897644 C91.85324814 19.86170578 91.85102753 20.69443512 91.84873962 21.55239868 C91.84862633 22.9637484 91.84862633 22.9637484 91.84851074 24.40361023 C91.84334946 25.42651657 91.83818817 26.44942291 91.83287048 27.50332642 C91.83145554 28.54512558 91.83004059 29.58692474 91.82858276 30.66029358 C91.82296503 34.00253111 91.81040953 37.34470273 91.79771423 40.68692017 C91.79270152 42.94668483 91.78813822 45.20645053 91.78404236 47.46621704 C91.77298984 53.01897407 91.75623447 58.57169241 91.73521423 64.12442017 C93.34203064 64.10701782 93.34203064 64.10701782 94.98130798 64.08926392 C96.37844167 64.07988718 97.77557722 64.07078686 99.17271423 64.06192017 C99.87976501 64.05354126 100.5868158 64.04516235 101.31529236 64.03652954 C103.12214983 64.02788429 104.92909026 64.07222005 106.73521423 64.12442017 C107.73521423 65.12442017 107.73521423 65.12442017 107.85546875 67.10490417 C107.85324814 67.9731633 107.85102753 68.84142242 107.84873962 69.73599243 C107.84866409 70.71693375 107.84858856 71.69787506 107.84851074 72.70854187 C107.84334946 73.77519577 107.83818817 74.84184967 107.83287048 75.94082642 C107.83074806 77.5701133 107.83074806 77.5701133 107.82858276 79.23231506 C107.82296472 82.71721092 107.81040916 86.20204358 107.79771423 89.68692017 C107.79270156 92.04303903 107.78813825 94.3991589 107.78404236 96.75527954 C107.77298942 102.5450176 107.7557127 108.33470815 107.73521423 114.12442017 C102.45521423 114.12442017 97.17521423 114.12442017 91.73521423 114.12442017 C91.77478213 119.01595487 91.77478213 119.01595487 91.82530212 123.90737915 C91.83246337 125.64663733 91.78546126 127.3858732 91.73521423 129.12442017 C91.40521423 129.45442017 91.07521423 129.78442017 90.73521423 130.12442017 C85.78521423 130.12442017 80.83521423 130.12442017 75.73521423 130.12442017 C75.73521423 145.30442017 75.73521423 160.48442017 75.73521423 176.12442017 C84.81495612 176.08488938 84.81495612 176.08488938 93.89463806 176.03433228 C95.02409851 176.03183472 96.15355896 176.02933716 97.31724548 176.02676392 C98.47458191 176.0215271 99.63191833 176.01629028 100.82432556 176.01089478 C103.73521423 176.12442017 103.73521423 176.12442017 106.73521423 177.12442017 C106.73521423 182.40442017 106.73521423 187.68442017 106.73521423 193.12442017 C112.01521423 193.12442017 117.29521423 193.12442017 122.73521423 193.12442017 C122.73521423 203.68442017 122.73521423 214.24442017 122.73521423 225.12442017 C106.89521423 225.12442017 91.05521423 225.12442017 74.73521423 225.12442017 C74.73521423 219.84442017 74.73521423 214.56442017 74.73521423 209.12442017 C69.45521423 209.12442017 64.17521423 209.12442017 58.73521423 209.12442017 C58.73521423 203.84442017 58.73521423 198.56442017 58.73521423 193.12442017 C53.45521423 193.12442017 48.17521423 193.12442017 42.73521423 193.12442017 C42.73521423 203.68442017 42.73521423 214.24442017 42.73521423 225.12442017 C37.45521423 225.12442017 32.17521423 225.12442017 26.73521423 225.12442017 C26.73521423 219.84442017 26.73521423 214.56442017 26.73521423 209.12442017 C21.45521423 209.12442017 16.17521423 209.12442017 10.73521423 209.12442017 C10.73521423 214.40442017 10.73521423 219.68442017 10.73521423 225.12442017 C5.45521423 225.12442017 0.17521423 225.12442017 -5.26478577 225.12442017 C-5.26478577 214.56442017 -5.26478577 204.00442017 -5.26478577 193.12442017 C0.01521423 193.12442017 5.29521423 193.12442017 10.73521423 193.12442017 C10.73521423 166.72442017 10.73521423 140.32442017 10.73521423 113.12442017 C21.29521423 113.12442017 31.85521423 113.12442017 42.73521423 113.12442017 C42.73521423 102.56442017 42.73521423 92.00442017 42.73521423 81.12442017 C48.01521423 81.12442017 53.29521423 81.12442017 58.73521423 81.12442017 C58.73521423 70.56442017 58.73521423 60.00442017 58.73521423 49.12442017 C53.45521423 49.12442017 48.17521423 49.12442017 42.73521423 49.12442017 C42.73521423 54.40442017 42.73521423 59.68442017 42.73521423 65.12442017 C37.45521423 65.12442017 32.17521423 65.12442017 26.73521423 65.12442017 C26.73521423 59.84442017 26.73521423 54.56442017 26.73521423 49.12442017 C24.06878845 49.23270142 24.06878845 49.23270142 21.34849548 49.34317017 C6.79623467 49.91152288 -7.70147579 50.22844381 -22.26478577 50.12442017 C-22.26478577 38.90442017 -22.26478577 27.68442017 -22.26478577 16.12442017 C-14.34478577 15.62942017 -14.34478577 15.62942017 -6.26478577 15.12442017 C-6.28541077 12.83504517 -6.30603577 10.54567017 -6.32728577 8.18692017 C-6.34849445 5.83275685 -6.33750318 3.47755571 -6.26478577 1.12442017 C-4.53337083 -0.60699477 -2.30728533 0.00464438 0 0 Z " fill="#EDEEF0" transform="translate(38.26478576660156,-0.124420166015625)"/>
<path d="M0 0 C1.15249741 0.00222061 2.30499481 0.00444122 3.49241638 0.00672913 C5.4443264 0.00684242 5.4443264 0.00684242 7.43566895 0.00695801 C8.86661313 0.01206543 10.29755694 0.01728144 11.72850037 0.02259827 C13.18438672 0.02446249 14.64027369 0.02588637 16.09616089 0.02688599 C19.93488791 0.03071086 23.77357731 0.04054088 27.61228943 0.05158997 C32.21445183 0.06359954 36.81662678 0.06820647 41.41880035 0.07404327 C48.41659113 0.08375266 55.41429932 0.10290939 62.41209412 0.12025452 C62.41209412 15.63025452 62.41209412 31.14025452 62.41209412 47.12025452 C67.36209412 47.12025452 72.31209412 47.12025452 77.41209412 47.12025452 C81.42595898 51.13411938 78.41209412 58.44379239 78.41209412 64.12025452 C46.07209412 64.12025452 13.73209412 64.12025452 -19.58790588 64.12025452 C-19.58790588 48.12025452 -19.58790588 48.12025452 -18.58790588 47.12025452 C-16.05741186 47.04711885 -13.55485752 47.02777925 -11.02540588 47.05775452 C-10.31448792 47.06226624 -9.60356995 47.06677795 -8.87110901 47.07142639 C-7.11000575 47.08324588 -5.34894552 47.10118189 -3.58790588 47.12025452 C-3.5901265 46.54618362 -3.59234711 45.97211273 -3.59463501 45.38064575 C-3.61668845 39.42772542 -3.63181272 33.47481661 -3.64283752 27.52186584 C-3.64787905 25.2975772 -3.65471211 23.07329189 -3.66334534 20.84901428 C-3.67541887 17.65947143 -3.68113584 14.46997223 -3.68556213 11.28041077 C-3.69072342 10.2793782 -3.6958847 9.27834564 -3.70120239 8.24697876 C-3.70127792 7.3260997 -3.70135345 6.40522064 -3.70143127 5.45643616 C-3.70365189 4.64147171 -3.7058725 3.82650726 -3.7081604 2.98684692 C-3.51699476 0.01957097 -2.98551992 0.1387308 0 0 Z " fill="#8B484E" transform="translate(67.58790588378906,256.87974548339844)"/>
<path d="M0 0 C15.18 0 30.36 0 46 0 C46 5.28 46 10.56 46 16 C51.28 16 56.56 16 62 16 C62 10.72 62 5.44 62 0 C67.28 0 72.56 0 78 0 C78 10.56 78 21.12 78 32 C72.72 32 67.44 32 62 32 C62 37.28 62 42.56 62 48 C6.61093248 49.20900322 6.61093248 49.20900322 -19 49 C-19.02465288 44.31860746 -19.04283739 39.63725241 -19.05493164 34.95581055 C-19.05997157 33.36205386 -19.0668035 31.76830181 -19.07543945 30.17456055 C-19.08751999 27.88849747 -19.09323155 25.60249533 -19.09765625 23.31640625 C-19.10281754 22.59973282 -19.10797882 21.88305939 -19.11329651 21.14466858 C-19.11349263 19.42936328 -19.06192007 17.71418734 -19 16 C-18 15 -18 15 -16.23413086 14.88647461 C-15.48526611 14.89171143 -14.73640137 14.89694824 -13.96484375 14.90234375 C-13.15595703 14.90556641 -12.34707031 14.90878906 -11.51367188 14.91210938 C-10.66353516 14.92048828 -9.81339844 14.92886719 -8.9375 14.9375 C-8.08349609 14.94201172 -7.22949219 14.94652344 -6.34960938 14.95117188 C-4.23304337 14.96299627 -2.11651315 14.98093231 0 15 C0 10.05 0 5.1 0 0 Z " fill="#E9C260" transform="translate(19,49)"/>
<path d="M0 0 C1.34888732 0.00015905 2.69778075 0.00584927 4.04663086 0.01586914 C5.10991859 0.01799156 5.10991859 0.01799156 6.19468689 0.02015686 C8.46699173 0.02577096 10.73919936 0.03832576 13.01147461 0.05102539 C14.54858257 0.05603858 16.08569206 0.0606018 17.62280273 0.06469727 C21.39826128 0.07489569 25.17350865 0.09446808 28.94897461 0.11352539 C28.94897461 5.72352539 28.94897461 11.33352539 28.94897461 17.11352539 C23.66897461 17.11352539 18.38897461 17.11352539 12.94897461 17.11352539 C12.94897461 27.67352539 12.94897461 38.23352539 12.94897461 49.11352539 C5.0932337 49.76817047 -2.46260791 50.24831899 -10.30102539 50.17602539 C-13.51852539 50.15540039 -16.73602539 50.13477539 -20.05102539 50.11352539 C-20.05102539 38.89352539 -20.05102539 27.67352539 -20.05102539 16.11352539 C-12.13102539 15.61852539 -12.13102539 15.61852539 -4.05102539 15.11352539 C-4.07165039 12.82415039 -4.09227539 10.53477539 -4.11352539 8.17602539 C-4.13473407 5.82186208 -4.12374281 3.46666094 -4.05102539 1.11352539 C-3.05102539 0.11352539 -3.05102539 0.11352539 0 0 Z " fill="#AAC2FB" transform="translate(36.051025390625,-0.113525390625)"/>
<path d="M0 0 C9.9 0 19.8 0 30 0 C30 5.28 30 10.56 30 16 C24.72 16 19.44 16 14 16 C14 26.89 14 37.78 14 49 C3.11 49 -7.78 49 -19 49 C-19.020625 43.575625 -19.04125 38.15125 -19.0625 32.5625 C-19.071604 30.84877197 -19.08070801 29.13504395 -19.09008789 27.36938477 C-19.09300716 26.01839273 -19.09555569 24.66739981 -19.09765625 23.31640625 C-19.10277222 22.60899292 -19.10788818 21.90157959 -19.11315918 21.17272949 C-19.11347032 19.44807383 -19.06225761 17.72353162 -19 16 C-18 15 -18 15 -16.23413086 14.88647461 C-15.48526611 14.89171143 -14.73640137 14.89694824 -13.96484375 14.90234375 C-13.15595703 14.90556641 -12.34707031 14.90878906 -11.51367188 14.91210938 C-10.66353516 14.92048828 -9.81339844 14.92886719 -8.9375 14.9375 C-8.08349609 14.94201172 -7.22949219 14.94652344 -6.34960938 14.95117188 C-4.23304337 14.96299627 -2.11651315 14.98093231 0 15 C0 10.05 0 5.1 0 0 Z " fill="#CF8444" transform="translate(19,49)"/>
<path d="M0 0 C10.56 0 21.12 0 32 0 C33.43509221 2.87018441 33.11158506 5.33543723 33.09765625 8.5390625 C33.09443359 9.84101563 33.09121094 11.14296875 33.08789062 12.484375 C33.07953466 13.86458399 33.07106971 15.24479232 33.0625 16.625 C33.05748501 18.01301926 33.0529221 19.40104022 33.04882812 20.7890625 C33.03700976 24.19275132 33.02053434 27.59635439 33 31 C34.60681641 30.98259766 34.60681641 30.98259766 36.24609375 30.96484375 C37.64322743 30.95546701 39.04036299 30.94636669 40.4375 30.9375 C41.14455078 30.92912109 41.85160156 30.92074219 42.58007812 30.91210938 C44.38693559 30.90346412 46.19387603 30.94779989 48 31 C52.01386486 35.01386486 49 42.32353788 49 48 C32.83 48 16.66 48 0 48 C0 42.72 0 37.44 0 32 C10.23 32 20.46 32 31 32 C31 26.72 31 21.44 31 16 C20.77 16 10.54 16 0 16 C0 10.72 0 5.44 0 0 Z " fill="#EAC263" transform="translate(97,273)"/>
<path d="M0 0 C10.89 0 21.78 0 33 0 C33 0.33 33 0.66 33 1 C27.72 1 22.44 1 17 1 C17.020625 3.083125 17.04125 5.16625 17.0625 7.3125 C17.125 13.625 17.125 13.625 16 17 C21.61 17 27.22 17 33 17 C33.18451025 50.78587699 33.18451025 50.78587699 32 65 C27.05 65 22.1 65 17 65 C17 54.44 17 43.88 17 33 C11.72 33 6.44 33 1 33 C1 27.72 1 22.44 1 17 C0.01 16.67 -0.98 16.34 -2 16 C-1.34 16 -0.68 16 0 16 C0 10.72 0 5.44 0 0 Z " fill="#AAC1F9" transform="translate(144,160)"/>
<path d="M0 0 C5.61 0 11.22 0 17 0 C17 4.95 17 9.9 17 15 C21.95 15 26.9 15 32 15 C32 26.22 32 37.44 32 49 C27.05 49 22.1 49 17 49 C17.01160156 51.22621094 17.02320313 53.45242187 17.03515625 55.74609375 C17.04294722 57.89396014 17.04902375 60.04182497 17.05493164 62.18969727 C17.05997121 63.68644918 17.06680287 65.18319616 17.07543945 66.67993164 C17.08752159 68.82699807 17.09323191 70.97399962 17.09765625 73.12109375 C17.10289307 74.4145874 17.10812988 75.70808105 17.11352539 77.04077148 C17 80 17 80 16 81 C13.4672235 81.07320163 10.96896082 81.09227569 8.4375 81.0625 C5.983125 81.041875 3.52875 81.02125 1 81 C1 86.28 1 91.56 1 97 C-9.56 97 -20.12 97 -31 97 C-31 96.67 -31 96.34 -31 96 C-20.77 96 -10.54 96 0 96 C0 85.44 0 74.88 0 64 C4.95 64 9.9 64 15 64 C14.98839844 62.62972656 14.97679687 61.25945312 14.96484375 59.84765625 C14.88193711 45.20556585 15.31349079 30.62509805 16 16 C10.39 16 4.78 16 -1 16 C-0.67 10.72 -0.34 5.44 0 0 Z " fill="#A9C1F7" transform="translate(161,161)"/>
<path d="M0 0 C15.84 0 31.68 0 48 0 C48 5.28 48 10.56 48 16 C32.16 16.33 16.32 16.66 0 17 C0 11.39 0 5.78 0 0 Z " fill="#D08541" transform="translate(33,81)"/>
<path d="M0 0 C15.84 0 31.68 0 48 0 C48 5.28 48 10.56 48 16 C32.16 16 16.32 16 0 16 C0 10.72 0 5.44 0 0 Z " fill="#7796DC" transform="translate(113,225)"/>
<path d="M0 0 C5.28 0 10.56 0 16 0 C16 5.28 16 10.56 16 16 C21.28 16 26.56 16 32 16 C32 21.28 32 26.56 32 32 C21.44 32 10.88 32 0 32 C0 21.44 0 10.88 0 0 Z " fill="#AAC1F9" transform="translate(81,193)"/>
<path d="M0 0 C5.61 0 11.22 0 17 0 C17 4.95 17 9.9 17 15 C21.95 15 26.9 15 32 15 C32 20.61 32 26.22 32 32 C26.72 32 21.44 32 16 32 C16 26.72 16 21.44 16 16 C10.39 16 4.78 16 -1 16 C-0.67 10.72 -0.34 5.44 0 0 Z " fill="#EBEFF3" transform="translate(161,161)"/>
<path d="M0 0 C16.335 0.495 16.335 0.495 33 1 C33 6.61 33 12.22 33 18 C22.11 18 11.22 18 0 18 C0 12.06 0 6.12 0 0 Z " fill="#8B494F" transform="translate(0,80)"/>
<path d="M0 0 C10.89 0 21.78 0 33 0 C33 5.94 33 11.88 33 18 C32.505 17.01 32.505 17.01 32 16 C21.44 16 10.88 16 0 16 C0 10.72 0 5.44 0 0 Z " fill="#CF8444" transform="translate(97,257)"/>
<path d="M0 0 C10.89 0 21.78 0 33 0 C33 5.28 33 10.56 33 16 C22.11 16 11.22 16 0 16 C0 10.72 0 5.44 0 0 Z " fill="#D08447" transform="translate(48,305)"/>
<path d="M0 0 C5.28 0 10.56 0 16 0 C16 10.56 16 21.12 16 32 C10.72 32 5.44 32 0 32 C0 21.44 0 10.88 0 0 Z " fill="#E8EEF6" transform="translate(49,209)"/>
<path d="M0 0 C5.28 0 10.56 0 16 0 C16 10.56 16 21.12 16 32 C10.72 32 5.44 32 0 32 C0 21.44 0 10.88 0 0 Z " fill="#080707" transform="translate(81,49)"/>
<path d="M0 0 C10.23 0 20.46 0 31 0 C31 5.28 31 10.56 31 16 C20.77 16 10.54 16 0 16 C0 10.72 0 5.44 0 0 Z " fill="#CF8541" transform="translate(97,289)"/>
<path d="M0 0 C1.39456452 0.00667256 2.78911118 0.01863093 4.18359375 0.03515625 C4.89451172 0.03966797 5.60542969 0.04417969 6.33789062 0.04882812 C8.09899388 0.06064761 9.86005411 0.07858362 11.62109375 0.09765625 C11.74946823 10.82405687 11.38552655 21.39559708 10.62109375 32.09765625 C5.67109375 32.09765625 0.72109375 32.09765625 -4.37890625 32.09765625 C-4.40181863 27.70102592 -4.42174458 23.30460137 -4.43383789 18.90795898 C-4.43887746 17.41120707 -4.44570912 15.91446009 -4.4543457 14.41772461 C-4.46642784 12.27065818 -4.47213816 10.12365663 -4.4765625 7.9765625 C-4.48179932 6.68306885 -4.48703613 5.3895752 -4.49243164 4.05688477 C-4.33101504 -0.15070788 -4.28276256 0.12377926 0 0 Z " fill="#7897D9" transform="translate(165.37890625,192.90234375)"/>
<path d="M0 0 C9.9 0 19.8 0 30 0 C30 5.28 30 10.56 30 16 C19.88118039 16.68157852 10.09761225 17.31707986 0 16 C0 10.72 0 5.44 0 0 Z " fill="#CE8541" transform="translate(19,49)"/>
<path d="M0 0 C5.61 0 11.22 0 17 0 C17 0.33 17 0.66 17 1 C12.05 1 7.1 1 2 1 C2 16.18 2 31.36 2 47 C6.95 47 11.9 47 17 47 C18 48 18 48 18.09765625 51.37890625 C18.09098369 52.77347077 18.07902532 54.16801743 18.0625 55.5625 C18.05798828 56.27341797 18.05347656 56.98433594 18.04882812 57.71679688 C18.03700864 59.47790013 18.01907263 61.23896036 18 63 C19.08861328 62.96970703 20.17722656 62.93941406 21.29882812 62.90820312 C47.51395119 62.19599632 73.7141169 61.90631881 99.9375 61.9375 C100.66256744 61.93835602 101.38763489 61.93921204 102.13467407 61.94009399 C111.08980598 61.95145473 120.04490532 61.97148697 129 62 C129 62.66 129 63.32 129 64 C98.35590302 64.55222588 67.71238832 65.09864996 37.0625 65.125 C35.51695435 65.12874634 35.51695435 65.12874634 33.94018555 65.13256836 C31.07597283 65.13834159 28.21186951 65.13705259 25.34765625 65.1328125 C24.08514793 65.13578842 24.08514793 65.13578842 22.7971344 65.13882446 C17.11545848 65.11545848 17.11545848 65.11545848 16 64 C15.92686433 61.46950598 15.90752473 58.96695163 15.9375 56.4375 C15.94201172 55.72658203 15.94652344 55.01566406 15.95117188 54.28320312 C15.96299136 52.52209987 15.98092737 50.76103964 16 49 C14.39318359 49.01740234 14.39318359 49.01740234 12.75390625 49.03515625 C11.35677257 49.04453299 9.95963701 49.05363331 8.5625 49.0625 C7.85544922 49.07087891 7.14839844 49.07925781 6.41992188 49.08789062 C4.61306441 49.09653588 2.80612397 49.05220011 1 49 C0 48 0 48 -0.12025452 46.05747986 C-0.11803391 45.20698563 -0.11581329 44.35649139 -0.11352539 43.48022461 C-0.11344986 42.51930405 -0.11337433 41.55838348 -0.11329651 40.56834412 C-0.10813522 39.523564 -0.10297394 38.47878387 -0.09765625 37.40234375 C-0.0962413 36.33834854 -0.09482635 35.27435333 -0.09336853 34.17811584 C-0.08775064 30.76454917 -0.07519511 27.351047 -0.0625 23.9375 C-0.05748731 21.62955824 -0.052924 19.32161545 -0.04882812 17.01367188 C-0.03777539 11.34242289 -0.02049877 5.6712224 0 0 Z " fill="#BCC8ED" transform="translate(0,193)"/>
<path d="M0 0 C26.07 0 52.14 0 79 0 C79 5.28 79 10.56 79 16 C68.44 16 57.88 16 47 16 C47 42.4 47 68.8 47 96 C41.72 96 36.44 96 31 96 C31 106.56 31 117.12 31 128 C30.67 128 30.34 128 30 128 C30 117.11 30 106.22 30 95 C36.435 94.505 36.435 94.505 43 94 C43.66 93.67 44.32 93.34 45 93 C45.33 67.26 45.66 41.52 46 15 C50.52268158 14.35390263 54.26088326 13.87718013 58.71484375 13.90234375 C59.72998047 13.90556641 60.74511719 13.90878906 61.79101562 13.91210938 C63.34852539 13.92467773 63.34852539 13.92467773 64.9375 13.9375 C66.53561523 13.94426758 66.53561523 13.94426758 68.16601562 13.95117188 C70.77740291 13.96288213 73.38867124 13.97928276 76 14 C76.96070434 11.11788698 77.10581883 9.30149956 77.0625 6.3125 C77.05347656 5.50425781 77.04445313 4.69601563 77.03515625 3.86328125 C77.02355469 3.24839844 77.01195313 2.63351563 77 2 C76.40840088 2.03029297 75.81680176 2.06058594 75.20727539 2.09179688 C50.14815123 3.31087673 25.08121417 3.10095301 0 3 C0 2.01 0 1.02 0 0 Z " fill="#B1C1E6" transform="translate(2,97)"/>
<path d="M0 0 C10.89 0 21.78 0 33 0 C33 0.33 33 0.66 33 1 C27.72 1 22.44 1 17 1 C17.020625 3.0625 17.04125 5.125 17.0625 7.25 C17.10177189 11.17718859 16.95891957 14.16432171 16 18 C10.06 17.67 4.12 17.34 -2 17 C-1.34 16.67 -0.68 16.34 0 16 C0 10.72 0 5.44 0 0 Z " fill="#AEC5F5" transform="translate(144,160)"/>
<path d="M0 0 C5.61 0 11.22 0 17 0 C17 5.28 17 10.56 17 16 C11.72 16 6.44 16 1 16 C-0.7213061 10.83608171 -0.05353552 5.40708764 0 0 Z " fill="#D18349" transform="translate(64,273)"/>
<path d="M0 0 C5.28 0 10.56 0 16 0 C16 5.28 16 10.56 16 16 C10.72 16 5.44 16 0 16 C0 10.72 0 5.44 0 0 Z " fill="#E7EEF6" transform="translate(81,225)"/>
<path d="M0 0 C5.28 0 10.56 0 16 0 C16 5.28 16 10.56 16 16 C10.72 16 5.44 16 0 16 C0 10.72 0 5.44 0 0 Z " fill="#7995DA" transform="translate(97,209)"/>
<path d="M0 0 C5.28 0 10.56 0 16 0 C16 5.28 16 10.56 16 16 C10.72 16 5.44 16 0 16 C0 10.72 0 5.44 0 0 Z " fill="#ACC0F9" transform="translate(49,209)"/>
<path d="M0 0 C5.28 0 10.56 0 16 0 C16 5.28 16 10.56 16 16 C10.72 16 5.44 16 0 16 C0 10.72 0 5.44 0 0 Z " fill="#7B96D3" transform="translate(81,193)"/>
<path d="M0 0 C5.28 0 10.56 0 16 0 C16.020625 2.454375 16.04125 4.90875 16.0625 7.4375 C16.071604 8.21150146 16.08070801 8.98550293 16.09008789 9.78295898 C16.09724913 11.52221717 16.05024702 13.26145304 16 15 C15 16 15 16 11.62109375 16.09765625 C10.22652508 16.09191424 8.83198403 16.07890228 7.4375 16.0625 C4.983125 16.041875 2.52875 16.02125 0 16 C0 10.72 0 5.44 0 0 Z " fill="#7A96D6" transform="translate(145,177)"/>
<path d="M0 0 C4.62 0 9.24 0 14 0 C14 5.28 14 10.56 14 16 C9.27967883 17.57344039 4.92182643 16.52113456 0 16 C0 10.72 0 5.44 0 0 Z " fill="#080203" transform="translate(19,49)"/>
<path d="M0 0 C5.61 0 11.22 0 17 0 C17 15.51 17 31.02 17 47 C21.95 47 26.9 47 32 47 C32 63.17 32 79.34 32 96 C26.72 96 21.44 96 16 96 C16 95.67 16 95.34 16 95 C20.95 95 25.9 95 31 95 C31 79.82 31 64.64 31 49 C25.72 49 20.44 49 15 49 C15 33.16 15 17.32 15 1 C10.05 1 5.1 1 0 1 C0 0.67 0 0.34 0 0 Z " fill="#F8F8F8" transform="translate(113,17)"/>
<path d="M0 0 C26.07 0 52.14 0 79 0 C79 0.66 79 1.32 79 2 C52.67097485 3.22294175 26.35099078 3.10692467 0 3 C0 2.01 0 1.02 0 0 Z " fill="#C1BADE" transform="translate(2,97)"/>
<path d="M0 0 C4.02017255 -0.02485364 8.04031488 -0.04293238 12.06054688 -0.05493164 C13.4261147 -0.05993786 14.79167724 -0.06674482 16.15722656 -0.07543945 C18.12823118 -0.08766831 20.0992761 -0.09272866 22.0703125 -0.09765625 C23.84559326 -0.10551147 23.84559326 -0.10551147 25.65673828 -0.11352539 C28.8647296 -0.00459331 31.84570312 0.43439615 35 1 C35.99 1 36.98 1 38 1 C38.99 1 39.98 1 41 1 C41 1.99 41 2.98 41 4 C25.16 4.33 9.32 4.66 -7 5 C-6.67 3.68 -6.34 2.36 -6 1 C-6 1.66 -6 2.32 -6 3 C-5.38125 2.814375 -4.7625 2.62875 -4.125 2.4375 C-2 2 -2 2 0 3 C0 2.01 0 1.02 0 0 Z " fill="#C68653" transform="translate(40,93)"/>
<path d="M0 0 C0.33 0 0.66 0 1 0 C1 4.95 1 9.9 1 15 C-4.28 15 -9.56 15 -15 15 C-15 25.56 -15 36.12 -15 47 C-22.57815911 47.63151326 -29.30287003 48.11343564 -36.75 47.5625 C-37.554375 47.51029297 -38.35875 47.45808594 -39.1875 47.40429688 C-41.1255314 47.27740196 -43.06286427 47.13990425 -45 47 C-45 46.67 -45 46.34 -45 46 C-38.73 46 -32.46 46 -26 46 C-26 45.34 -26 44.68 -26 44 C-23.03 44 -20.06 44 -17 44 C-17.00785522 43.06317383 -17.00785522 43.06317383 -17.01586914 42.10742188 C-17.03684076 39.23829176 -17.04972376 36.36917785 -17.0625 33.5 C-17.07087891 32.51773438 -17.07925781 31.53546875 -17.08789062 30.5234375 C-17.10659124 24.91325243 -16.838879 19.54849101 -16 14 C-9.07 13.01 -9.07 13.01 -2 12 C-1.34 8.04 -0.68 4.08 0 0 Z " fill="#AFC2E9" transform="translate(64,2)"/>
<path d="M0 0 C1.34888732 0.00015905 2.69778075 0.00584927 4.04663086 0.01586914 C5.10991859 0.01799156 5.10991859 0.01799156 6.19468689 0.02015686 C8.46699173 0.02577096 10.73919936 0.03832576 13.01147461 0.05102539 C14.54858257 0.05603858 16.08569206 0.0606018 17.62280273 0.06469727 C21.39823103 0.07574497 25.17358632 0.09301898 28.94897461 0.11352539 C28.94897461 0.77352539 28.94897461 1.43352539 28.94897461 2.11352539 C18.71897461 2.11352539 8.48897461 2.11352539 -2.05102539 2.11352539 C-2.05102539 7.06352539 -2.05102539 12.01352539 -2.05102539 17.11352539 C-7.66102539 17.11352539 -13.27102539 17.11352539 -19.05102539 17.11352539 C-19.05102539 28.00352539 -19.05102539 38.89352539 -19.05102539 50.11352539 C-19.38102539 50.11352539 -19.71102539 50.11352539 -20.05102539 50.11352539 C-20.05102539 38.89352539 -20.05102539 27.67352539 -20.05102539 16.11352539 C-12.13102539 15.61852539 -12.13102539 15.61852539 -4.05102539 15.11352539 C-4.07165039 12.82415039 -4.09227539 10.53477539 -4.11352539 8.17602539 C-4.13473407 5.82186208 -4.12374281 3.46666094 -4.05102539 1.11352539 C-3.05102539 0.11352539 -3.05102539 0.11352539 0 0 Z " fill="#B2C7E9" transform="translate(36.051025390625,-0.113525390625)"/>
<path d="M0 0 C0.33 0 0.66 0 1 0 C1 4.95 1 9.9 1 15 C5.89153471 14.9604321 5.89153471 14.9604321 10.78295898 14.90991211 C12.52221717 14.90275087 14.26145304 14.94975298 16 15 C17 16 17 16 17.09765625 19.37890625 C17.09191424 20.77347492 17.07890228 22.16801597 17.0625 23.5625 C17.041875 26.016875 17.02125 28.47125 17 31 C21.95 31 26.9 31 32 31 C32 31.66 32 32.32 32 33 C29.35409986 33.02684679 26.70846904 33.04676357 24.0625 33.0625 C23.30775391 33.07087891 22.55300781 33.07925781 21.77539062 33.08789062 C19.85005687 33.09652441 17.92464419 33.05224333 16 33 C15 32 15 32 14.90234375 28.62109375 C14.90901631 27.22652923 14.92097468 25.83198257 14.9375 24.4375 C14.94201172 23.72658203 14.94652344 23.01566406 14.95117188 22.28320312 C14.96299136 20.52209987 14.98092737 18.76103964 15 17 C13.39318359 17.01740234 13.39318359 17.01740234 11.75390625 17.03515625 C10.35677257 17.04453299 8.95963701 17.05363331 7.5625 17.0625 C6.85544922 17.07087891 6.14839844 17.07925781 5.41992188 17.08789062 C3.61306441 17.09653588 1.80612397 17.05220011 0 17 C-1.75559942 15.24440058 -1.13221919 12.96417558 -1.13671875 10.62890625 C-1.13285156 9.92636719 -1.12898437 9.22382812 -1.125 8.5 C-1.12886719 7.79746094 -1.13273438 7.09492187 -1.13671875 6.37109375 C-1.12661378 1.12661378 -1.12661378 1.12661378 0 0 Z " fill="#B8CBF2" transform="translate(1,97)"/>
<path d="M0 0 C10.89 0 21.78 0 33 0 C33 5.28 33 10.56 33 16 C22.11 16 11.22 16 0 16 C0 10.72 0 5.44 0 0 Z M2 1 C2 5.62 2 10.24 2 15 C6.43850197 15.13450006 10.87296195 15.23390423 15.3125 15.3125 C17.20645508 15.3753418 17.20645508 15.3753418 19.13867188 15.43945312 C20.95141602 15.46362305 20.95141602 15.46362305 22.80078125 15.48828125 C23.91622314 15.51446533 25.03166504 15.54064941 26.1809082 15.56762695 C29.11532259 15.2493171 29.11532259 15.2493171 30.94995117 13.03198242 C32.55295854 9.10537934 32.55295854 9.10537934 31 1 C21.43 1 11.86 1 2 1 Z " fill="#D3905E" transform="translate(48,305)"/>
<path d="M0 0 C0.74886475 0.00523682 1.49772949 0.01047363 2.26928711 0.01586914 C3.07817383 0.0190918 3.88706055 0.02231445 4.72045898 0.02563477 C5.5705957 0.03401367 6.42073242 0.04239258 7.29663086 0.05102539 C8.15063477 0.05553711 9.00463867 0.06004883 9.88452148 0.06469727 C12.00108749 0.07652166 14.11761771 0.0944577 16.23413086 0.11352539 C16.23413086 0.77352539 16.23413086 1.43352539 16.23413086 2.11352539 C10.62413086 2.11352539 5.01413086 2.11352539 -0.76586914 2.11352539 C-0.43586914 6.40352539 -0.10586914 10.69352539 0.23413086 15.11352539 C1.31049805 15.10192383 2.38686523 15.09032227 3.49584961 15.07836914 C12.47274494 15.01237014 21.29167919 15.24260836 30.23413086 16.11352539 C30.23413086 16.44352539 30.23413086 16.77352539 30.23413086 17.11352539 C25.69515381 17.13817931 21.15621543 17.15636328 16.6171875 17.16845703 C15.0719332 17.17349679 13.5266837 17.18032859 11.98144531 17.18896484 C9.76488057 17.20104615 7.54837868 17.20675712 5.33178711 17.21118164 C4.28958763 17.21892357 4.28958763 17.21892357 3.22633362 17.2268219 C1.56183756 17.22701816 -0.10252413 17.17541668 -1.76586914 17.11352539 C-3.52146856 15.35792597 -2.89808834 13.07770098 -2.90258789 10.74243164 C-2.8987207 10.03989258 -2.89485352 9.33735352 -2.89086914 8.61352539 C-2.89473633 7.91098633 -2.89860352 7.20844727 -2.90258789 6.48461914 C-2.89045148 0.1858233 -2.89045148 0.1858233 0 0 Z " fill="#CB895A" transform="translate(2.765869140625,63.886474609375)"/>
<path d="M0 0 C10.89 0 21.78 0 33 0 C33 5.94 33 11.88 33 18 C30.31907309 15.31907309 30.61329743 13.60832637 30.375 9.875 C30.30023438 8.77929688 30.22546875 7.68359375 30.1484375 6.5546875 C30.09945312 5.71164062 30.05046875 4.86859375 30 4 C26.82490018 2.94163339 24.35717617 2.79756211 21.01953125 2.68359375 C19.85615234 2.64169922 18.69277344 2.59980469 17.49414062 2.55664062 C16.27919922 2.51732422 15.06425781 2.47800781 13.8125 2.4375 C12.58595703 2.39431641 11.35941406 2.35113281 10.09570312 2.30664062 C7.06391619 2.2004691 4.03204685 2.09842048 1 2 C0.67 2.66 0.34 3.32 0 4 C0 2.68 0 1.36 0 0 Z " fill="#BF8D6E" transform="translate(97,257)"/>
<path d="M0 0 C15.84 0 31.68 0 48 0 C48 0.66 48 1.32 48 2 C32.16 2.33 16.32 2.66 0 3 C0 2.01 0 1.02 0 0 Z " fill="#7E97C5" transform="translate(113,225)"/>
<path d="M0 0 C5.28 0 10.56 0 16 0 C16 4.62 16 9.24 16 14 C14 12 14 12 13.8046875 9.3984375 C13.82789062 8.40070313 13.85109375 7.40296875 13.875 6.375 C13.89304687 5.37210938 13.91109375 4.36921875 13.9296875 3.3359375 C13.95289062 2.56507813 13.97609375 1.79421875 14 1 C12.56138706 1.08746284 11.12402492 1.19565348 9.6875 1.3125 C8.88699219 1.37050781 8.08648437 1.42851562 7.26171875 1.48828125 C4.52901491 2.10656139 3.58020202 2.69047398 2 5 C1.63786432 7.51289675 1.63786432 7.51289675 1.8125 10.1875 C1.83957031 11.08855469 1.86664063 11.98960937 1.89453125 12.91796875 C1.92933594 13.60503906 1.96414062 14.29210937 2 15 C1.01 15.495 1.01 15.495 0 16 C0 10.72 0 5.44 0 0 Z M-16 16 C-10.72 16 -5.44 16 0 16 C-0.66 16.66 -1.32 17.32 -2 18 C-5.2578125 17.9765625 -5.2578125 17.9765625 -9.125 17.625 C-10.40632813 17.51414063 -11.68765625 17.40328125 -13.0078125 17.2890625 C-13.99523438 17.19367188 -14.98265625 17.09828125 -16 17 C-16 16.67 -16 16.34 -16 16 Z " fill="#B1C2E9" transform="translate(65,225)"/>
<path d="M0 0 C5.61 0 11.22 0 17 0 C17 5.28 17 10.56 17 16 C11.72 16 6.44 16 1 16 C-0.7213061 10.83608171 -0.05353552 5.40708764 0 0 Z M4 2 C1.88704744 5.16942884 1.74749071 5.99629953 1.8125 9.625 C1.81894531 10.42164063 1.82539062 11.21828125 1.83203125 12.0390625 C1.78817102 14.00289734 1.78817102 14.00289734 3 15 C4.80927281 15.12487758 6.62396107 15.17570846 8.4375 15.1875 C9.92056641 15.20876953 9.92056641 15.20876953 11.43359375 15.23046875 C14.16584415 15.26150753 14.16584415 15.26150753 16 13 C16.28129466 10.3656065 16.28129466 10.3656065 16.1875 7.4375 C16.18105469 6.44621094 16.17460938 5.45492188 16.16796875 4.43359375 C16.27125434 2.05234128 16.27125434 2.05234128 15 1 C9.38795897 0.71231971 9.38795897 0.71231971 4 2 Z " fill="#CB855F" transform="translate(64,273)"/>
<path d="M0 0 C0.99 0.495 0.99 0.495 2 1 C2 5.62 2 10.24 2 15 C10.25 15 18.5 15 27 15 C27.33 15.66 27.66 16.32 28 17 C18.76 17.33 9.52 17.66 0 18 C0 12.06 0 6.12 0 0 Z " fill="#7E5168" transform="translate(0,80)"/>
<path d="M0 0 C5.28 0 10.56 0 16 0 C16 5.28 16 10.56 16 16 C10.72 16 5.44 16 0 16 C0 10.72 0 5.44 0 0 Z M3 1 C0.894816 4.157776 0.74710656 4.95397134 0.8125 8.5625 C0.81894531 9.34753906 0.82539062 10.13257813 0.83203125 10.94140625 C0.87635911 13.06354672 0.87635911 13.06354672 2 15 C3.6026782 15.10824843 5.20745748 15.18570645 6.8125 15.25 C8.15248047 15.31960937 8.15248047 15.31960937 9.51953125 15.390625 C12.10945981 15.22069181 12.10945981 15.22069181 13.83984375 13.27734375 C15.20892051 10.58989677 15.19911948 9.26594878 14.75 6.3125 C14.64171875 5.52488281 14.5334375 4.73726562 14.421875 3.92578125 C14.18189904 2.00209522 14.18189904 2.00209522 13 1 C10.70384446 0.76180772 10.70384446 0.76180772 8.0625 0.75 C7.16660156 0.72421875 6.27070312 0.6984375 5.34765625 0.671875 C4.18556641 0.83429688 4.18556641 0.83429688 3 1 Z " fill="#B3C1E6" transform="translate(49,209)"/>
<path d="M0 0 C1.48831242 0.00667405 2.97660807 0.01863442 4.46484375 0.03515625 C5.22345703 0.03966797 5.98207031 0.04417969 6.76367188 0.04882812 C8.64326246 0.06064945 10.52281274 0.07858547 12.40234375 0.09765625 C12.40234375 0.75765625 12.40234375 1.41765625 12.40234375 2.09765625 C7.45234375 2.09765625 2.50234375 2.09765625 -2.59765625 2.09765625 C-2.59765625 7.04765625 -2.59765625 11.99765625 -2.59765625 17.09765625 C-8.20765625 17.09765625 -13.81765625 17.09765625 -19.59765625 17.09765625 C-19.59765625 16.76765625 -19.59765625 16.43765625 -19.59765625 16.09765625 C-14.64765625 16.09765625 -9.69765625 16.09765625 -4.59765625 16.09765625 C-4.63722415 11.20612154 -4.63722415 11.20612154 -4.68774414 6.31469727 C-4.69490538 4.57543908 -4.64790327 2.83620321 -4.59765625 1.09765625 C-3.59765625 0.09765625 -3.59765625 0.09765625 0 0 Z " fill="#AFC9ED" transform="translate(20.59765625,175.90234375)"/>
<path d="M0 0 C1.34888732 0.00015905 2.69778075 0.00584927 4.04663086 0.01586914 C5.10991859 0.01799156 5.10991859 0.01799156 6.19468689 0.02015686 C8.46699173 0.02577096 10.73919936 0.03832576 13.01147461 0.05102539 C14.54858257 0.05603858 16.08569206 0.0606018 17.62280273 0.06469727 C21.39823103 0.07574497 25.17358632 0.09301898 28.94897461 0.11352539 C28.61897461 0.77352539 28.28897461 1.43352539 27.94897461 2.11352539 C27.11648193 2.12810791 26.28398926 2.14269043 25.42626953 2.15771484 C22.33407808 2.21881169 19.24255379 2.29297095 16.15087891 2.37597656 C14.15606831 2.42553858 12.16090204 2.46003672 10.16577148 2.49438477 C8.9121582 2.52983398 7.65854492 2.5652832 6.36694336 2.60180664 C5.20960693 2.62799072 4.05227051 2.6541748 2.85986328 2.68115234 C-0.25664348 3.14406717 -1.19649511 3.63601137 -3.05102539 6.11352539 C-3.43321306 4.45737882 -3.76497641 2.78895515 -4.05102539 1.11352539 C-3.05102539 0.11352539 -3.05102539 0.11352539 0 0 Z " fill="#794E6A" transform="translate(68.051025390625,256.886474609375)"/>
<path d="M0 0 C0.33 0 0.66 0 1 0 C1 5.94 1 11.88 1 18 C-9.14602811 19.17069555 -18.85262016 18.73286632 -29 18 C-29 17.67 -29 17.34 -29 17 C-22.73 17 -16.46 17 -10 17 C-10 16.34 -10 15.68 -10 15 C-7.03 15 -4.06 15 -1 15 C-0.67 10.05 -0.34 5.1 0 0 Z " fill="#ADB0CE" transform="translate(48,31)"/>
<path d="M0 0 C2.42479736 3.63719605 2.38662577 5.85703482 2.625 10.1875 C2.69976562 11.45980469 2.77453125 12.73210937 2.8515625 14.04296875 C2.90054688 15.01878906 2.94953125 15.99460937 3 17 C7.29 17.33 11.58 17.66 16 18 C16 18.33 16 18.66 16 19 C5.77 19 -4.46 19 -15 19 C-15 18.67 -15 18.34 -15 18 C-10.05 18 -5.1 18 0 18 C0 12.06 0 6.12 0 0 Z " fill="#9A5845" transform="translate(64,286)"/>
<path d="M0 0 C0.99 0.33 1.98 0.66 3 1 C3 4.63 3 8.26 3 12 C7.95 12.33 12.9 12.66 18 13 C18 13.66 18 14.32 18 15 C12.06 15 6.12 15 0 15 C0 10.05 0 5.1 0 0 Z " fill="#E9BE74" transform="translate(97,305)"/>
<path d="M0 0 C0.66 0 1.32 0 2 0 C3.43316898 2.86633795 3.13200361 5.37235501 3.125 8.5625 C3.12757813 9.73941406 3.13015625 10.91632813 3.1328125 12.12890625 C3 15 3 15 2 16 C0.00041636 16.04080783 -2.00045254 16.04254356 -4 16 C-3.34 15.01 -2.68 14.02 -2 13 C-1.55296766 10.78415454 -1.18536758 8.55158039 -0.875 6.3125 C-0.70742187 5.13300781 -0.53984375 3.95351563 -0.3671875 2.73828125 C-0.24601562 1.83464844 -0.12484375 0.93101562 0 0 Z " fill="#EAC479" transform="translate(127,273)"/>
<path d="M0 0 C0.33 0.66 0.66 1.32 1 2 C1.57366302 1.83701416 2.14732605 1.67402832 2.7383728 1.50610352 C4.98068829 1.00432154 6.89367068 0.88551739 9.18603516 0.90234375 C10.40717514 0.90729858 10.40717514 0.90729858 11.65298462 0.91235352 C12.52289032 0.92065186 13.39279602 0.9289502 14.2890625 0.9375 C15.1886972 0.94128662 16.08833191 0.94507324 17.01522827 0.94897461 C19.88520105 0.96118024 22.7550729 0.97981632 25.625 1 C29.40885135 1.02651347 33.19265361 1.04653933 36.9765625 1.0625 C37.85051666 1.07079834 38.72447083 1.07909668 39.62490845 1.08764648 C43.94770046 1.24112445 43.94770046 1.24112445 48 0 C48 0.99 48 1.98 48 3 C32.16 3.33 16.32 3.66 0 4 C0 2.68 0 1.36 0 0 Z " fill="#B08A7C" transform="translate(33,94)"/>
<path d="M0 0 C5.28 0 10.56 0 16 0 C16 0.66 16 1.32 16 2 C9.07 3.485 9.07 3.485 2 5 C1.67 8.63 1.34 12.26 1 16 C0.67 16 0.34 16 0 16 C0 10.72 0 5.44 0 0 Z " fill="#B98966" transform="translate(33,49)"/>
<path d="M0 0 C5.28 0 10.56 0 16 0 C16 5.28 16 10.56 16 16 C15.67 16 15.34 16 15 16 C14.67 11.38 14.34 6.76 14 2 C9.38 2 4.76 2 0 2 C0 1.34 0 0.68 0 0 Z " fill="#DDC581" transform="translate(49,49)"/>
<path d="M0 0 C5.28 0 10.56 0 16 0 C16 5.28 16 10.56 16 16 C15.67 16 15.34 16 15 16 C14.67 11.71 14.34 7.42 14 3 C7.07 2.505 7.07 2.505 0 2 C0 1.34 0 0.68 0 0 Z " fill="#8196C1" transform="translate(97,209)"/>
<path d="M0 0 C5.28 0 10.56 0 16 0 C16 5.28 16 10.56 16 16 C14.68 15.67 13.36 15.34 12 15 C12.495 14.0409375 12.495 14.0409375 13 13.0625 C14.3584273 8.90231641 14.13042254 5.36915502 14 1 C9.38 1 4.76 1 0 1 C0 0.67 0 0.34 0 0 Z " fill="#CB825F" transform="translate(65,305)"/>
<path d="M0 0 C0.33 0.66 0.66 1.32 1 2 C1.53625 1.814375 2.0725 1.62875 2.625 1.4375 C5.61990614 0.88580676 8.03745829 1.39402556 11 2 C11 2.33 11 2.66 11 3 C7.37 3.33 3.74 3.66 0 4 C0 2.68 0 1.36 0 0 Z " fill="#BC8974" transform="translate(33,94)"/>
<path d="M0 0 C0.33 0 0.66 0 1 0 C1 1.98 1 3.96 1 6 C-0.32 6 -1.64 6 -3 6 C-2.42655063 3.13275314 -2.1385485 2.1385485 0 0 Z " fill="#E2C373" transform="translate(143,314)"/>
<path d="M0 0 C2.64 0.33 5.28 0.66 8 1 C5.08235 2.9451 3.37462715 3.45276317 0 4 C0 2.68 0 1.36 0 0 Z " fill="#C48654" transform="translate(34,50)"/>
</svg>
